<?xml version="1.0" encoding="UTF-8"?>
<svg id="Layer_1" xmlns="http://www.w3.org/2000/svg" version="1.1" viewBox="0 0 737 396.9">
  <!-- Generator: Adobe Illustrator 29.0.0, SVG Export Plug-In . SVG Version: 2.1.0 Build 186)  -->
  <defs>
    <style>
      .st0 {
        fill: #3b5dac;
      }
    </style>
  </defs>
  <g>
    <path class="st0" d="M86.2,211.7v-23.1c0-9.6,5.1-16.9,24.7-16.9h7.3l9.1,10.6h-18.4c-5.6,0-10.1,1.5-10.1,7.1v5.2h81.7c5.8,0,7.5-3.1,7.5-5.3,0-5-2.7-7.1-6.8-7.1h-45.3l-10-10.5h55.6c11.3,0,18.4,6.5,18.4,14.6v6.5c0,4-.8,12.5-21.3,12.5h-3.8l21.1,23.1h-15.9l-21.7-22.9h-59.3v5.8c0,1.7-.7,6.5,8.5,6.5h54l10,10.6h-67.4c-7.6,0-17.9-3.2-17.9-16.7"/>
    <path class="st0" d="M66.1,198.4c0-42.3,34.2-76.5,76.5-76.5h0c42.2,0,76.5,34.2,76.5,76.5h0c0,42.3-34.2,76.5-76.5,76.5h0c-42.3,0-76.5-34.2-76.5-76.5h0ZM74,198.4c0,37.9,30.7,68.5,68.6,68.6h0c37.9,0,68.5-30.7,68.6-68.6h0c-.1-37.9-30.7-68.5-68.6-68.6h0c-37.9,0-68.5,30.8-68.6,68.6h0Z"/>
  </g>
  <g>
    <path class="st0" d="M244,206.2v5.5c0,2.1,1.4,4,4.1,5.5,2.7,1.5,7.1,2.3,13.1,2.3h12.4c1.6,0,2.7.4,3.2,1.3.5.9.7,2.2.7,4s-.2,3.2-.7,4.1c-.5.9-1.5,1.4-3.2,1.4h-12.8c-20.3,0-30.4-6.2-30.4-18.7v-23.3c0-12.5,10.1-18.7,30.4-18.7h24.8c10.7,0,18.5,1.5,23.3,4.6s7.1,7.8,7.1,14.1v12.4c0,2.1-.4,3.5-1.2,4.3-.8.8-2.5,1.2-5.3,1.2h-65.5ZM244,195.5h58.4v-7.2c0-2.5-1.3-4.4-4-5.8s-7.1-2-13.2-2h-24c-6,0-10.4.8-13.1,2.3-2.7,1.5-4.1,3.4-4.1,5.6v7.1h0Z"/>
    <path class="st0" d="M337.9,225.7c0,2.1-.6,3.4-1.7,4.1-1.1.6-2.9,1-5.2,1s-4-.3-5.1-1c-1.1-.6-1.7-2-1.7-4.1v-68.6c0-2.1.6-3.4,1.7-4.1,1.1-.6,2.8-1,5.1-1s4,.3,5.2,1c1.1.6,1.7,2,1.7,4.1v68.6h0Z"/>
    <path class="st0" d="M383.8,169.7c1.6,0,2.7.5,3.2,1.4s.7,2.3.7,4.1-.2,3.1-.7,4-1.5,1.3-3.2,1.3h-8.4c-5.3,0-9,.7-11.1,2-2.1,1.4-3.1,3.3-3.1,5.7v37.5c0,2.1-.6,3.4-1.7,4.1-1.1.6-2.9,1-5.2,1s-4-.3-5.1-1c-1.1-.6-1.7-2-1.7-4.1v-37.5c0-6.2,2.4-10.9,7.1-14,4.8-3.1,11.7-4.6,20.7-4.6h8.5Z"/>
    <path class="st0" d="M465.9,217.9v-43.7c0-2.1.6-3.4,1.7-4.1,1.1-.6,2.8-1,5.1-1s4,.3,5.2,1c1.1.6,1.7,2,1.7,4.1v55.1c0,6.2-2.4,10.9-7.1,14-4.8,3.1-11.7,4.6-20.7,4.6h-14.8c-1.6,0-2.7-.5-3.2-1.4s-.7-2.3-.7-4.1.2-3.1.7-4,1.5-1.3,3.2-1.3h14.8c5.3,0,9-.7,11.1-2s3.1-3.2,3.1-5.7v-.5h-40.8c-20.3,0-30.4-6.2-30.4-18.7v-35.9c0-2.1.6-3.4,1.7-4.1,1.1-.6,2.8-1,5.1-1s4,.3,5.2,1c1.1.6,1.7,2,1.7,4.1v36c0,2.2,1.4,4.1,4.1,5.5,2.7,1.5,7.1,2.2,13.1,2.2h40.2,0Z"/>
    <path class="st0" d="M518.4,230.4c-20.3,0-30.4-6.2-30.4-18.7v-5.7c0-12.5,10.1-18.7,30.4-18.7h46c0-2.2-1.3-3.8-4-5s-7.1-1.8-13.2-1.8h-10.1c-1.7,0-2.7-.4-3.2-1.3s-.8-2.2-.8-4,.2-3.2.8-4.1c.5-.9,1.6-1.3,3.2-1.3h10.5c20.3,0,30.4,6.2,30.4,18.7v23.3c0,12.5-10.1,18.7-30.4,18.7h-29.2ZM547.2,219.4c6,0,10.4-.8,13.1-2.3,2.7-1.5,4.1-3.4,4.1-5.5v-14h-45.6c-6,0-10.4.8-13.1,2.3s-4.1,3.4-4.1,5.6v6.1c0,2.1,1.4,4,4.1,5.5s7.1,2.3,13.1,2.3h28.4Z"/>
    <path class="st0" d="M593.5,230.7c-2.3,0-4-.3-5.1-1-1.1-.6-1.7-2-1.7-4.1v-37.4c0-12.5,10.1-18.7,30.4-18.7h23.4c20.3,0,30.4,6.2,30.4,18.7v37.4c0,2.1-.6,3.4-1.7,4.1-1.1.6-2.9,1-5.2,1s-4-.3-5.1-1c-1.1-.6-1.7-2-1.7-4.1v-37.4c0-2.2-1.4-4.1-4.1-5.6-2.7-1.5-7.1-2.3-13.1-2.3h-22.6c-6,0-10.4.8-13.1,2.3-2.7,1.5-4.1,3.4-4.1,5.6v37.4c0,2.1-.6,3.4-1.7,4.1-1,.7-2.7,1-5,1h0Z"/>
  </g>
</svg>